<?xml version="1.0" standalone="no"?>
<!DOCTYPE svg PUBLIC "-//W3C//DTD SVG 20010904//EN"
 "http://www.w3.org/TR/2001/REC-SVG-20010904/DTD/svg10.dtd">
<svg version="1.0" xmlns="http://www.w3.org/2000/svg"
 width="256.000000pt" height="256.000000pt" viewBox="0 0 256.000000 256.000000"
 preserveAspectRatio="xMidYMid meet">
<metadata>
Created by potrace 1.14, written by Peter Selinger 2001-2017
</metadata>
<g transform="translate(0.000000,256.000000) scale(0.100000,-0.100000)"
fill="#000000" stroke="none">
<path d="M445 2109 c-4 -6 -5 -12 -2 -15 2 -3 7 2 10 11 7 17 1 20 -8 4z"/>
<path d="M2110 2101 c0 -10 19 -25 25 -20 1 2 -3 10 -11 17 -8 7 -14 8 -14 3z"/>
<path d="M410 2072 c-70 -76 -210 -311 -210 -353 0 -8 -4 -19 -9 -24 -4 -6
-16 -44 -25 -85 -10 -41 -22 -91 -27 -111 -5 -20 -9 -98 -9 -174 0 -230 41
-386 159 -600 27 -49 142 -197 156 -202 10 -3 25 59 42 165 4 26 2 31 -10 26
-10 -3 -22 4 -34 23 -9 15 -20 30 -23 33 -41 34 -150 254 -174 348 -13 51 -19
79 -32 162 -7 40 -7 328 0 338 3 5 8 27 12 48 15 101 82 248 159 352 44 61 57
89 25 54z"/>
<path d="M725 2060 c-95 -37 -164 -115 -131 -148 13 -13 20 -11 63 20 115 85
242 88 365 11 43 -27 54 -28 61 -9 9 23 -51 83 -115 115 -75 38 -163 41 -243
11z"/>
<path d="M2154 2050 c9 -14 32 -50 53 -80 91 -138 143 -310 145 -488 4 -265
-52 -475 -176 -662 -201 -301 -500 -485 -838 -515 -59 -6 -83 13 -99 75 -25
94 11 155 128 220 96 54 134 82 149 113 14 25 14 31 0 52 -30 46 -140 56 -218
20 l-33 -15 35 5 c19 2 68 8 107 11 70 7 73 6 82 -17 14 -37 -4 -56 -67 -75
-193 -58 -333 -111 -346 -133 -4 -6 9 -21 28 -33 20 -13 37 -30 37 -38 4 -33
-3 -55 -23 -77 l-21 -22 32 -30 c17 -16 31 -34 31 -41 0 -6 -16 -27 -35 -47
-41 -42 -40 -41 -18 -65 23 -25 9 -47 -43 -66 -61 -22 -302 -28 -392 -8 -106
22 -169 82 -193 183 -6 27 -15 57 -20 68 -7 18 -8 18 -8 -4 -1 -26 11 -68 37
-136 19 -49 91 -120 129 -128 106 -22 138 -26 218 -26 82 0 123 5 210 25 17 3
45 18 63 31 30 22 41 25 95 21 178 -14 395 28 571 111 353 165 595 496 647
886 27 201 -7 436 -87 613 -13 29 -24 55 -24 57 0 14 -96 157 -131 195 -23 25
-34 34 -25 20z"/>
<path d="M1573 1921 c-47 -12 -85 -40 -81 -59 3 -14 15 -17 73 -15 39 1 142 4
230 7 88 3 161 7 163 10 6 15 -1 24 -35 41 -31 15 -65 19 -178 21 -77 2 -155
-1 -172 -5z"/>
<path d="M905 1840 c-48 -20 -105 -117 -105 -180 0 -61 61 -140 108 -140 24 0
79 37 104 71 83 112 4 296 -107 249z"/>
<path d="M1554 1751 c-42 -26 -74 -94 -74 -160 0 -190 203 -186 234 5 22 128
-66 213 -160 155z"/>
<path d="M985 1067 c-41 -10 -51 -16 -53 -36 -3 -21 -1 -23 25 -17 61 15 210
18 292 6 48 -7 137 -29 198 -50 91 -30 115 -35 124 -24 37 45 -302 137 -491
133 -25 -1 -67 -6 -95 -12z"/>
<path d="M632 999 c16 -31 21 -60 22 -123 2 -87 14 -120 60 -158 30 -25 39
-22 20 7 -9 14 -19 61 -24 117 -9 102 -21 142 -52 176 -36 38 -51 28 -26 -19z"/>
<path d="M1238 763 c7 -3 16 -2 19 1 4 3 -2 6 -13 5 -11 0 -14 -3 -6 -6z"/>
</g>
</svg>
